<?xml version="1.0" encoding="utf-8"?>
<!-- Generator: Adobe Illustrator 25.2.0, SVG Export Plug-In . SVG Version: 6.00 Build 0)  -->
<svg version="1.1" id="Layer_1" xmlns="http://www.w3.org/2000/svg" xmlns:xlink="http://www.w3.org/1999/xlink" x="0px" y="0px"
	 viewBox="0 0 200 200" style="enable-background:new 0 0 200 200;" xml:space="preserve">
<style type="text/css">
	.st0{fill:url(#SVGID_1_);}
	.st1{opacity:0.85;}
	.st2{fill:url(#SVGID_2_);}
	.st3{fill:none;}
	.st4{fill:#FFFFFF;}
</style>
<linearGradient id="SVGID_1_" gradientUnits="userSpaceOnUse" x1="-9.504562e-03" y1="100.096" x2="200.2068" y2="100.096">
	<stop  offset="0" style="stop-color:#317B4F"/>
	<stop  offset="0.16" style="stop-color:#32955C"/>
	<stop  offset="0.36" style="stop-color:#32AF6A"/>
	<stop  offset="0.56" style="stop-color:#33C273"/>
	<stop  offset="0.77" style="stop-color:#33CD79"/>
	<stop  offset="1" style="stop-color:#33D17B"/>
</linearGradient>
<path class="st0" d="M173.8,199.7H26.4C11.8,199.7,0,187.9,0,173.3V26.9C0,12.3,11.8,0.5,26.4,0.5h147.4c14.6,0,26.4,11.8,26.4,26.4
	v146.4C200.2,187.9,188.4,199.7,173.8,199.7z"/>
<g class="st1">
	
		<image style="overflow:visible;enable-background:new    ;" width="1013" height="1122" xlink:href="3EEDDE0F30F045F3.png"  transform="matrix(0.1485 0 0 0.1485 35.5895 17.5546)">
	</image>
</g>
<linearGradient id="SVGID_2_" gradientUnits="userSpaceOnUse" x1="42.6806" y1="102.0007" x2="201.2516" y2="102.0007" gradientTransform="matrix(1 0 0 -1 0 202)">
	<stop  offset="0" style="stop-color:#F6A241"/>
	<stop  offset="1" style="stop-color:#FCCB5A"/>
</linearGradient>
<path class="st2" d="M201.3,23.4v153.2H185h-65.1c-42.6,0-77.1-34.3-77.1-76.6c0,0,0,0,0,0l0,0c0-42.3,34.5-76.6,77.1-76.6
	c0,0,0,0,0,0"/>
<path class="st3" d="M164.3,199.7H35.9C16,199.7,0,183.7,0,163.9V36.3C0,16.5,16,0.5,35.9,0.5h128.5c19.8,0,35.9,16.1,35.9,35.9
	v127.5C200.2,183.7,184.2,199.7,164.3,199.7z"/>
<image style="overflow:visible;enable-background:new    ;" width="667" height="679" xlink:href="3EEDDE0F30F045F6.png"  transform="matrix(0.1485 0 0 0.1485 80.8942 56.2538)">
</image>
<rect x="86.3" y="61.7" class="st4" width="39.9" height="39.9"/>
<rect x="134.6" y="61.7" class="st4" width="39.9" height="39.9"/>
<rect x="86.3" y="111.8" class="st4" width="39.9" height="36.7"/>
</svg>
