<?xml version="1.0" encoding="utf-8"?>
<!-- Generator: Adobe Illustrator 25.2.0, SVG Export Plug-In . SVG Version: 6.00 Build 0)  -->
<svg version="1.1" id="Layer_1" xmlns="http://www.w3.org/2000/svg" xmlns:xlink="http://www.w3.org/1999/xlink" x="0px" y="0px"
	 viewBox="0 0 1064 201" style="enable-background:new 0 0 1064 201;" xml:space="preserve">
<style type="text/css">
	.st0{fill:url(#SVGID_1_);}
	.st1{fill:url(#SVGID_2_);}
	.st2{fill:url(#SVGID_3_);}
	.st3{fill:url(#SVGID_4_);}
	.st4{fill:url(#SVGID_5_);}
	.st5{fill:url(#SVGID_6_);}
	.st6{fill:url(#SVGID_7_);}
	.st7{fill:url(#SVGID_8_);}
	.st8{fill:url(#SVGID_9_);}
	.st9{opacity:0.85;}
	.st10{fill:url(#SVGID_10_);}
	.st11{fill:#FFFFFF;}
	.st12{opacity:0.17;fill:#004936;enable-background:new    ;}
</style>
<g>
	<g>
		<linearGradient id="SVGID_1_" gradientUnits="userSpaceOnUse" x1="643.0201" y1="103.4016" x2="1056.6918" y2="107.5246">
			<stop  offset="0" style="stop-color:#F6A241"/>
			<stop  offset="1" style="stop-color:#FCCB5A"/>
		</linearGradient>
		<path class="st0" d="M656.8,163.2c-7.1-3-12.6-7.1-16.5-12.5c-3.9-5.4-5.8-11.7-5.8-18.9v-4.5c0-0.6,0.2-1.1,0.6-1.5
			c0.4-0.4,0.9-0.6,1.6-0.6h16.4c0.6,0,1.1,0.2,1.6,0.6c0.4,0.4,0.6,0.9,0.6,1.5v3.4c0,5.5,2.5,10,7.6,13.7c5,3.6,11.9,5.4,20.6,5.4
			c7.5,0,13.1-1.5,16.9-4.6c3.8-3.1,5.7-7.1,5.7-12c0-3.3-1-6.2-3.1-8.5c-2.1-2.3-5.1-4.4-8.9-6.3c-3.9-1.9-9.7-4.3-17.4-7.1
			c-8.7-3.1-15.8-6-21.2-8.7c-5.4-2.7-9.9-6.5-13.5-11.2c-3.6-4.7-5.4-10.6-5.4-17.6c0-10.5,3.9-18.7,11.8-24.8
			c7.9-6.1,18.4-9.1,31.5-9.1c9.2,0,17.3,1.5,24.4,4.6c7.1,3.1,12.6,7.4,16.5,12.9c3.9,5.5,5.9,11.9,5.9,19.2v3
			c0,0.6-0.2,1.1-0.6,1.5c-0.4,0.4-1,0.6-1.6,0.6h-16.6c-0.6,0-1.1-0.2-1.6-0.6c-0.4-0.4-0.6-0.9-0.6-1.5v-2
			c0-5.6-2.4-10.3-7.1-14.2c-4.7-3.9-11.3-5.8-19.6-5.8c-6.8,0-12,1.4-15.7,4.1c-3.7,2.7-5.6,6.6-5.6,11.6c0,3.6,1,6.5,2.9,8.7
			c2,2.3,4.9,4.3,8.8,6.2c3.9,1.8,10,4.2,18.2,7.1c8.7,3.2,15.7,6.1,20.9,8.7c5.2,2.6,9.7,6.3,13.4,11c3.7,4.7,5.6,10.6,5.6,17.6
			c0,10.7-4.1,19.2-12.2,25.5c-8.2,6.3-19.3,9.5-33.4,9.5C672.3,167.7,663.9,166.2,656.8,163.2z"/>
		<linearGradient id="SVGID_2_" gradientUnits="userSpaceOnUse" x1="642.8821" y1="118.8856" x2="1056.5616" y2="123.0087">
			<stop  offset="0" style="stop-color:#F6A241"/>
			<stop  offset="1" style="stop-color:#FCCB5A"/>
		</linearGradient>
		<path class="st1" d="M766.7,164.5l-26.3-87.1l-0.2-0.7c0-1.2,0.7-1.8,2-1.8h17.5c1.4,0,2.2,0.6,2.6,1.8l15.3,59.6
			c0.1,0.4,0.3,0.5,0.6,0.5c0.2,0,0.4-0.2,0.6-0.5l16-59.6c0.4-1.2,1.2-1.8,2.6-1.8h15.3c1.4,0,2.2,0.6,2.6,1.8l16.4,59.6
			c0.1,0.4,0.3,0.5,0.6,0.5c0.2,0,0.4-0.2,0.6-0.5L849,76.6c0.4-1.2,1.2-1.8,2.6-1.8l17.3,0.4c0.7,0,1.3,0.2,1.6,0.6
			c0.3,0.4,0.4,1,0.3,1.7l-26.5,86.9c-0.4,1.2-1.2,1.8-2.4,1.8h-17.7c-1.4,0-2.2-0.6-2.6-1.8L805.4,110c-0.1-0.4-0.3-0.5-0.6-0.5
			c-0.2,0-0.4,0.2-0.6,0.5l-14.9,54.4c-0.4,1.2-1.2,1.8-2.6,1.8h-17.5C768,166.2,767.1,165.7,766.7,164.5z"/>
		<linearGradient id="SVGID_3_" gradientUnits="userSpaceOnUse" x1="642.8932" y1="117.941" x2="1056.5343" y2="122.0637">
			<stop  offset="0" style="stop-color:#F6A241"/>
			<stop  offset="1" style="stop-color:#FCCB5A"/>
		</linearGradient>
		<path class="st2" d="M939.5,77.5c5.9,2.6,10.4,6.2,13.6,10.8c3.2,4.6,4.8,9.8,4.8,15.6v60.1c0,0.6-0.2,1.1-0.6,1.5
			c-0.4,0.4-1,0.6-1.6,0.6h-16.9c-0.6,0-1.1-0.2-1.6-0.6c-0.4-0.4-0.6-0.9-0.6-1.5v-5.7c0-0.4-0.1-0.6-0.4-0.6
			c-0.2-0.1-0.5,0-0.7,0.3c-6,6.4-14.7,9.6-26.2,9.6c-9.2,0-16.8-2.3-22.7-6.8c-6-4.5-8.9-11.2-8.9-20.2c0-9.3,3.3-16.5,10-21.7
			c6.7-5.2,16.1-7.8,28.3-7.8h19.7c0.6,0,0.9-0.3,0.9-0.9v-4.3c0-4.6-1.4-8.2-4.2-10.8c-2.8-2.6-7.1-3.8-12.7-3.8
			c-4.7,0-8.4,0.8-11.3,2.4c-2.9,1.6-4.7,3.8-5.4,6.7c-0.4,1.4-1.2,2-2.6,1.8l-17.9-2.1c-0.6-0.1-1.1-0.3-1.6-0.6
			c-0.4-0.3-0.6-0.7-0.5-1.2c1-7.3,5-13.2,12.1-17.8c7.1-4.6,15.9-7,26.6-7C926.8,73.6,933.6,74.9,939.5,77.5z M930.1,146.6
			c4.3-3.1,6.4-7,6.4-11.8v-8.4c0-0.6-0.3-0.9-0.9-0.9h-15.5c-6.5,0-11.6,1.2-15.4,3.6c-3.7,2.4-5.6,5.8-5.6,10.2
			c0,3.8,1.4,6.8,4.3,8.8c2.9,2.1,6.6,3.1,11.1,3.1C920.6,151.3,925.8,149.7,930.1,146.6z"/>
		<linearGradient id="SVGID_4_" gradientUnits="userSpaceOnUse" x1="642.797" y1="133.206" x2="1056.4058" y2="137.3284">
			<stop  offset="0" style="stop-color:#F6A241"/>
			<stop  offset="1" style="stop-color:#FCCB5A"/>
		</linearGradient>
		<path class="st3" d="M1062.3,120.9c0,8.4-1,15.7-3.1,21.8c-2.7,7.9-7,14-13,18.4c-6,4.4-13.5,6.6-22.6,6.6c-8.7,0-15.7-3-21-9.1
			c-0.2-0.2-0.5-0.3-0.7-0.2c-0.2,0.1-0.4,0.4-0.4,0.7v38.7c0,0.6-0.2,1.1-0.6,1.5c-0.4,0.4-1,0.6-1.6,0.6h-16.9
			c-0.6,0-1.1-0.2-1.6-0.6c-0.4-0.4-0.6-0.9-0.6-1.5V77.2c0-0.6,0.2-1.1,0.6-1.5c0.4-0.4,0.9-0.6,1.6-0.6h16.9
			c0.6,0,1.1,0.2,1.6,0.6c0.4,0.4,0.6,0.9,0.6,1.5v5.4c0,0.4,0.1,0.6,0.4,0.7c0.2,0.1,0.5,0,0.7-0.4c5.4-6.2,12.5-9.3,21.2-9.3
			c8.7,0,16.1,2.2,22.1,6.6c6,4.4,10.4,10.5,13.1,18.4C1061.2,104.7,1062.3,112.1,1062.3,120.9z M1040.6,120.6
			c0-8.7-1.5-15.5-4.4-20.5c-3.4-5.8-8.7-8.7-15.7-8.7c-6.4,0-11.2,2.9-14.4,8.6c-2.8,4.6-4.2,11.5-4.2,20.7
			c0,9.4,1.5,16.5,4.6,21.4c3.2,5.2,7.8,7.9,13.8,7.9c6.5,0,11.4-2.5,14.7-7.5C1038.7,136.9,1040.6,129.6,1040.6,120.6z"/>
	</g>
	<g>
		<linearGradient id="SVGID_5_" gradientUnits="userSpaceOnUse" x1="182.4217" y1="103.778" x2="615.3425" y2="103.778">
			<stop  offset="0" style="stop-color:#317B4F"/>
			<stop  offset="0.16" style="stop-color:#32955C"/>
			<stop  offset="0.36" style="stop-color:#32AF6A"/>
			<stop  offset="0.56" style="stop-color:#33C273"/>
			<stop  offset="0.77" style="stop-color:#33CD79"/>
			<stop  offset="1" style="stop-color:#33D17B"/>
		</linearGradient>
		<path class="st4" d="M239,162.4c-7-3.5-12.4-8.4-16.2-14.7c-3.8-6.3-5.7-13.6-5.7-22V81.6c0-8.3,1.9-15.6,5.7-22
			c3.8-6.3,9.2-11.2,16.2-14.6c7-3.4,15.1-5.2,24.3-5.2c9.1,0,17.1,1.7,24.1,5c7,3.3,12.4,8,16.2,14.1c3.8,6.1,5.7,13.1,5.7,21.1
			c0,0.6-0.2,1.1-0.6,1.5c-0.4,0.4-1,0.6-1.6,0.6l-16.9,0.9c-1.5,0-2.2-0.7-2.2-2c0-7-2.2-12.7-6.7-17c-4.5-4.3-10.5-6.4-18-6.4
			c-7.5,0-13.5,2.1-18,6.4c-4.5,4.3-6.8,9.9-6.8,17v45.5c0,6.9,2.3,12.5,6.8,16.8c4.5,4.3,10.6,6.4,18,6.4c7.5,0,13.5-2.1,18-6.3
			c4.5-4.2,6.7-9.8,6.7-16.9c0-1.3,0.7-2,2.2-2l16.9,0.7c0.6,0,1.1,0.2,1.6,0.5c0.4,0.4,0.6,0.8,0.6,1.2c0,8.1-1.9,15.2-5.7,21.3
			c-3.8,6.1-9.2,10.9-16.2,14.2c-7,3.3-15,5-24.1,5C254.1,167.7,246,165.9,239,162.4z"/>
		<linearGradient id="SVGID_6_" gradientUnits="userSpaceOnUse" x1="182.4217" y1="103.6889" x2="615.3425" y2="103.6889">
			<stop  offset="0" style="stop-color:#317B4F"/>
			<stop  offset="0.16" style="stop-color:#32955C"/>
			<stop  offset="0.36" style="stop-color:#32AF6A"/>
			<stop  offset="0.56" style="stop-color:#33C273"/>
			<stop  offset="0.77" style="stop-color:#33CD79"/>
			<stop  offset="1" style="stop-color:#33D17B"/>
		</linearGradient>
		<path class="st5" d="M404.4,45.8c5.9,3.1,10.5,7.5,13.7,13.1c3.3,5.7,4.9,12.2,4.9,19.5c0,7.3-1.7,13.7-5,19.3
			c-3.3,5.6-8,9.9-14.1,12.9c-6.1,3-13.1,4.6-21.1,4.6h-29.5c-0.6,0-0.9,0.3-0.9,0.9v48c0,0.6-0.2,1.1-0.6,1.5
			c-0.4,0.4-1,0.6-1.6,0.6h-16.9c-0.6,0-1.1-0.2-1.6-0.6c-0.4-0.4-0.6-0.9-0.6-1.5V43.3c0-0.6,0.2-1.1,0.6-1.5
			c0.4-0.4,0.9-0.6,1.6-0.6H384C391.7,41.1,398.5,42.7,404.4,45.8z M395.9,93.1c3.8-3.6,5.7-8.3,5.7-14.1c0-5.9-1.9-10.8-5.7-14.5
			c-3.8-3.7-8.8-5.5-15.1-5.5h-27.4c-0.6,0-0.9,0.3-0.9,0.9v37.7c0,0.6,0.3,0.9,0.9,0.9h27.4C387.1,98.4,392.1,96.6,395.9,93.1z"/>
		<linearGradient id="SVGID_7_" gradientUnits="userSpaceOnUse" x1="182.4217" y1="120.6449" x2="615.3425" y2="120.6449">
			<stop  offset="0" style="stop-color:#317B4F"/>
			<stop  offset="0.16" style="stop-color:#32955C"/>
			<stop  offset="0.36" style="stop-color:#32AF6A"/>
			<stop  offset="0.56" style="stop-color:#33C273"/>
			<stop  offset="0.77" style="stop-color:#33CD79"/>
			<stop  offset="1" style="stop-color:#33D17B"/>
		</linearGradient>
		<path class="st6" d="M495,77.5c5.9,2.6,10.4,6.2,13.6,10.8c3.2,4.6,4.8,9.8,4.8,15.6v60.1c0,0.6-0.2,1.1-0.6,1.5
			c-0.4,0.4-1,0.6-1.6,0.6h-16.9c-0.6,0-1.1-0.2-1.6-0.6c-0.4-0.4-0.6-0.9-0.6-1.5v-5.7c0-0.4-0.1-0.6-0.4-0.6
			c-0.2-0.1-0.5,0-0.7,0.3c-6,6.4-14.7,9.6-26.2,9.6c-9.2,0-16.8-2.3-22.7-6.8c-6-4.5-8.9-11.2-8.9-20.2c0-9.3,3.3-16.5,10-21.7
			c6.7-5.2,16.1-7.8,28.3-7.8h19.7c0.6,0,0.9-0.3,0.9-0.9v-4.3c0-4.6-1.4-8.2-4.2-10.8c-2.8-2.6-7.1-3.8-12.7-3.8
			c-4.7,0-8.4,0.8-11.3,2.4c-2.9,1.6-4.7,3.8-5.4,6.7c-0.4,1.4-1.2,2-2.6,1.8l-17.9-2.1c-0.6-0.1-1.1-0.3-1.6-0.6
			c-0.4-0.3-0.6-0.7-0.5-1.2c1-7.3,5-13.2,12.1-17.8c7.1-4.6,15.9-7,26.6-7C482.3,73.6,489.1,74.9,495,77.5z M485.6,146.6
			c4.3-3.1,6.4-7,6.4-11.8v-8.4c0-0.6-0.3-0.9-0.9-0.9h-15.5c-6.5,0-11.6,1.2-15.4,3.6c-3.7,2.4-5.6,5.8-5.6,10.2
			c0,3.8,1.4,6.8,4.3,8.8c2.9,2.1,6.6,3.1,11.1,3.1C476.2,151.3,481.3,149.7,485.6,146.6z"/>
		<linearGradient id="SVGID_8_" gradientUnits="userSpaceOnUse" x1="182.4217" y1="104.4921" x2="615.3425" y2="104.4921">
			<stop  offset="0" style="stop-color:#317B4F"/>
			<stop  offset="0.16" style="stop-color:#32955C"/>
			<stop  offset="0.36" style="stop-color:#32AF6A"/>
			<stop  offset="0.56" style="stop-color:#33C273"/>
			<stop  offset="0.77" style="stop-color:#33CD79"/>
			<stop  offset="1" style="stop-color:#33D17B"/>
		</linearGradient>
		<path class="st7" d="M593.8,41.9c0.4-0.4,1-0.6,1.6-0.6h16.9c0.6,0,1.1,0.2,1.6,0.6c0.4,0.4,0.6,0.9,0.6,1.5v120.7
			c0,0.6-0.2,1.1-0.6,1.5c-0.4,0.4-1,0.6-1.6,0.6h-16.9c-0.6,0-1.1-0.2-1.6-0.6c-0.4-0.4-0.6-0.9-0.6-1.5v-5.4
			c0-0.4-0.1-0.6-0.4-0.7c-0.2-0.1-0.5,0-0.7,0.4c-5.4,6.2-12.5,9.3-21.2,9.3c-8.7,0-16.1-2.2-22.1-6.6c-6-4.4-10.4-10.5-13.1-18.4
			c-2.2-6.7-3.3-14.1-3.3-22.3c0-8.4,1-15.7,3.1-21.8c2.7-7.9,7.1-14,13.1-18.4c6-4.4,13.6-6.6,22.7-6.6c8.5,0,15.4,3,20.8,8.9
			c0.2,0.2,0.5,0.3,0.7,0.3c0.2-0.1,0.4-0.3,0.4-0.6V43.5C593.2,42.9,593.4,42.4,593.8,41.9z M593,120.6c0-9.3-1.5-16.4-4.6-21.2
			c-3.3-5.2-8-7.9-14-7.9c-6.3,0-11.2,2.5-14.7,7.5c-3.7,5.2-5.5,12.5-5.5,21.8c0,8.3,1.5,15.2,4.4,20.5c3.4,5.7,8.7,8.6,15.7,8.6
			c6.3,0,11.1-2.9,14.5-8.6C591.6,136.4,593,129.5,593,120.6z"/>
	</g>
</g>
<g>
	
		<linearGradient id="SVGID_9_" gradientUnits="userSpaceOnUse" x1="2.5547" y1="101.5" x2="183.0718" y2="101.5" gradientTransform="matrix(1 0 0 -1 0 202)">
		<stop  offset="0" style="stop-color:#317B4F"/>
		<stop  offset="0.16" style="stop-color:#32955C"/>
		<stop  offset="0.36" style="stop-color:#32AF6A"/>
		<stop  offset="0.56" style="stop-color:#33C273"/>
		<stop  offset="0.77" style="stop-color:#33CD79"/>
		<stop  offset="1" style="stop-color:#33D17B"/>
	</linearGradient>
	<path class="st8" d="M36.7,2.6h146.4l0,0v195.7l0,0H36.7c-18.8,0-34.1-15.3-34.1-34.1l0,0V36.7C2.6,17.9,17.8,2.6,36.7,2.6z"/>
	<g class="st9">
		
			<image style="overflow:visible;enable-background:new    ;" width="1013" height="1122" xlink:href="D675DB72681548F6.png"  transform="matrix(0.1457 0 0 0.1457 37.48 19.5933)">
		</image>
	</g>
	
		<linearGradient id="SVGID_10_" gradientUnits="userSpaceOnUse" x1="44.4388" y1="101.5007" x2="183.0688" y2="101.5007" gradientTransform="matrix(1 0 0 -1 0 202)">
		<stop  offset="0" style="stop-color:#F6A241"/>
		<stop  offset="1" style="stop-color:#FCCB5A"/>
	</linearGradient>
	<path class="st10" d="M119.6,25.3h63.5l0,0v150.3l0,0h-63.5c-41.5,0-75.2-33.7-75.2-75.2c0,0,0,0,0,0l0,0
		C44.4,59,78.1,25.3,119.6,25.3C119.6,25.3,119.6,25.3,119.6,25.3z"/>
	
		<image style="overflow:visible;enable-background:new    ;" width="667" height="679" xlink:href="D675DB72681548F9.png"  transform="matrix(0.1457 0 0 0.1457 81.9393 57.5702)">
	</image>
	<rect x="87.3" y="62.9" class="st11" width="39.2" height="39.2"/>
	<rect x="134.6" y="62.9" class="st11" width="39.2" height="39.2"/>
	<rect x="87.3" y="112.1" class="st11" width="39.2" height="36"/>
	<path class="st12" d="M157.9,122.5c-62.7,0-118.6-24.2-155.3-43.2v85c0,18.8,15.3,34.1,34.1,34.1h146.4l-0.1-76.5
		C174.8,122.3,166.4,122.5,157.9,122.5z"/>
</g>
</svg>
